M48
; DRILL file {KiCad 7.0.7-7.0.7~ubuntu23.04.1} date Sun Aug 20 12:14:31 2023
; FORMAT={-:-/ absolute / inch / decimal}
; #@! TF.CreationDate,2023-08-20T12:14:31+00:00
; #@! TF.GenerationSoftware,Kicad,Pcbnew,7.0.7-7.0.7~ubuntu23.04.1
; #@! TF.FileFunction,Plated,1,2,PTH
FMAT,2
INCH
; #@! TA.AperFunction,Plated,PTH,ViaDrill
T1C0.0157
; #@! TA.AperFunction,Plated,PTH,ComponentDrill
T2C0.0236
; #@! TA.AperFunction,Plated,PTH,ComponentDrill
T3C0.0276
; #@! TA.AperFunction,Plated,PTH,ComponentDrill
T4C0.0315
; #@! TA.AperFunction,Plated,PTH,ComponentDrill
T5C0.0394
; #@! TA.AperFunction,Plated,PTH,ComponentDrill
T6C0.0480
; #@! TA.AperFunction,Plated,PTH,ComponentDrill
T7C0.0559
; #@! TA.AperFunction,Plated,PTH,ComponentDrill
T8C0.0563
; #@! TA.AperFunction,Plated,PTH,ComponentDrill
T9C0.0787
%
G90
G05
T1
X3.9475Y-5.9078
X4.1893Y-5.2126
X4.3412Y-5.6757
X4.3417Y-5.0529
X4.4843Y-4.5426
X4.4941Y-5.0174
X4.4983Y-4.3411
X5.0454Y-5.1323
T2
X4.7296Y-4.332
X4.7886Y-4.332
X4.9136Y-4.332
X4.9726Y-4.332
T3
X3.6614Y-5.5118
X3.664Y-4.896
X3.664Y-5.096
X3.664Y-5.178
X3.664Y-5.378
X3.722Y-4.718
X3.722Y-4.808
X3.792Y-3.458
X3.792Y-3.658
X3.8614Y-5.5118
X3.877Y-6.2384
X3.877Y-6.838
X3.922Y-4.718
X3.922Y-4.808
X3.974Y-5.45
X3.974Y-5.536
X3.974Y-5.622
X4.026Y-3.458
X4.026Y-3.658
X4.077Y-6.2384
X4.077Y-6.838
X4.124Y-3.458
X4.124Y-3.658
X4.174Y-5.45
X4.174Y-5.536
X4.174Y-5.622
X4.22Y-3.458
X4.22Y-3.658
X4.271Y-6.838
X4.272Y-5.31
X4.272Y-5.3972
X4.272Y-5.4844
X4.272Y-5.5716
X4.272Y-5.6588
X4.272Y-5.746
X4.272Y-5.832
X4.272Y-6.032
X4.274Y-6.2384
X4.37Y-5.832
X4.37Y-6.032
X4.426Y-4.3296
X4.426Y-4.418
X4.426Y-4.506
X4.464Y-5.832
X4.464Y-6.032
X4.47Y-4.596
X4.47Y-4.796
X4.471Y-6.838
X4.472Y-5.31
X4.472Y-5.3972
X4.472Y-5.4844
X4.472Y-5.5716
X4.472Y-5.6588
X4.472Y-5.746
X4.474Y-6.2384
X4.476Y-6.124
X4.538Y-3.454
X4.538Y-3.654
X4.626Y-4.3296
X4.626Y-4.418
X4.626Y-4.506
X4.665Y-6.838
X4.676Y-6.124
X4.7644Y-6.124
X4.778Y-5.31
X4.778Y-5.396
X4.778Y-5.482
X4.865Y-6.838
X4.9644Y-6.124
X4.978Y-5.31
X4.978Y-5.396
X4.978Y-5.482
X5.08Y-6.038
X5.08Y-6.238
X5.082Y-5.532
X5.082Y-5.732
T4
X3.6688Y-4.222
X3.722Y-4.3296
X3.722Y-4.6296
X3.7672Y-4.222
X3.7678Y-3.7768
X3.7679Y-3.9968
X3.822Y-4.3296
X3.822Y-4.6296
X3.8678Y-3.8768
X3.8679Y-4.0968
X3.9088Y-4.222
X3.922Y-4.3296
X3.922Y-4.6296
X3.9678Y-3.7768
X3.9679Y-3.9968
X4.0072Y-4.222
X4.022Y-4.3296
X4.022Y-4.6296
X4.022Y-4.736
X4.0408Y-6.118
X4.0892Y-5.79
X4.0892Y-5.89
X4.0892Y-5.99
X4.1204Y-4.736
X4.122Y-4.3296
X4.122Y-4.6296
X4.1392Y-6.118
X4.222Y-4.3296
X4.222Y-4.6296
X4.2428Y-4.736
X4.308Y-4.91
X4.308Y-5.21
X4.322Y-4.3296
X4.322Y-4.6296
X4.3412Y-4.736
X4.382Y-3.456
X4.382Y-3.556
X4.382Y-3.656
X4.408Y-4.91
X4.408Y-5.21
X4.508Y-4.91
X4.508Y-5.21
X4.5748Y-5.328
X4.5748Y-5.464
X4.592Y-4.6236
X4.592Y-4.722
X4.608Y-4.91
X4.608Y-5.21
X4.6732Y-5.328
X4.6732Y-5.464
X4.708Y-4.91
X4.708Y-5.21
X4.7158Y-6.2384
X4.718Y-4.0
X4.718Y-4.1
X4.718Y-4.2
X4.768Y-4.582
X4.768Y-4.798
X4.808Y-4.91
X4.808Y-5.21
X4.8142Y-6.2384
X4.868Y-4.482
X4.868Y-4.698
X4.8838Y-4.0
X4.8838Y-4.1
X4.8838Y-4.2
X4.908Y-4.91
X4.908Y-5.21
X4.952Y-3.542
X4.952Y-3.82
X4.968Y-4.582
X4.968Y-4.798
X5.008Y-4.91
X5.008Y-5.21
X5.0504Y-3.542
X5.0504Y-3.82
X5.082Y-5.3248
X5.082Y-5.4232
X5.082Y-5.8368
X5.082Y-5.9352
T5
X3.674Y-3.458
X3.674Y-3.658
X3.8756Y-5.3534
X3.91Y-3.458
X3.91Y-3.658
X3.974Y-5.3534
X4.0724Y-5.3534
X4.2736Y-4.2034
X4.372Y-4.2034
X4.4704Y-4.2034
X4.666Y-6.024
X4.68Y-3.482
X4.68Y-3.582
X4.68Y-3.682
X4.68Y-3.782
X4.68Y-3.882
X4.7644Y-6.024
X4.78Y-3.482
X4.78Y-3.582
X4.78Y-3.682
X4.78Y-3.782
X4.78Y-3.882
X4.8629Y-6.024
X5.068Y-4.01
X5.068Y-4.21
T6
X3.78Y-5.6364
X3.78Y-6.2384
X3.78Y-6.838
X4.174Y-6.2384
X4.174Y-6.838
X4.568Y-6.2384
X4.568Y-6.838
X4.962Y-6.2384
X4.962Y-6.838
T7
X3.78Y-5.7585
X3.78Y-6.3605
X3.78Y-6.96
X4.174Y-6.3605
X4.174Y-6.96
X4.568Y-6.3605
X4.568Y-6.96
X4.962Y-6.3605
X4.962Y-6.96
T8
X3.78Y-6.0853
X3.78Y-6.6873
X3.78Y-7.2868
X4.174Y-6.6873
X4.174Y-7.2868
X4.568Y-6.6873
X4.568Y-7.2868
X4.962Y-6.6873
X4.962Y-7.2868
T9
X3.785Y-5.0581
X4.163Y-5.0581
X4.183Y-3.9081
X4.561Y-3.9081
X4.5754Y-5.7287
X4.9534Y-5.7287
T0
M30
